HIERARCHY
ROOT Hips
{
 OFFSET 0.000000 0.000000 0.000000
 CHANNELS 6 Xposition Yposition Zposition Yrotation Xrotation Zrotation
 JOINT Chest
 {
  OFFSET 0.000000 9.585900 0.002600
  CHANNELS 3 Yrotation Xrotation Zrotation
  JOINT Chest2
  {
   OFFSET 0.000000 9.601200 -0.005300
   CHANNELS 3 Yrotation Xrotation Zrotation
   JOINT Chest3
   {
    OFFSET 0.000000 9.561800 0.000000
    CHANNELS 3 Yrotation Xrotation Zrotation
    JOINT Chest4
    {
     OFFSET 0.000000 9.552100 0.000000
     CHANNELS 3 Yrotation Xrotation Zrotation
     JOINT Neck
     {
      OFFSET 0.000000 14.453000 0.000000
      CHANNELS 3 Yrotation Xrotation Zrotation
      JOINT Head
      {
       OFFSET 0.000000 8.936500 -0.011300
       CHANNELS 3 Yrotation Xrotation Zrotation
       End Site
       {
        OFFSET 0.000000 17.073600 -0.006000
       }
      }
     }
     JOINT RightCollar
     {
      OFFSET -2.921100 9.558500 0.000000
      CHANNELS 3 Yrotation Xrotation Zrotation
      JOINT RightShoulder
      {
       OFFSET -13.519700 0.000000 0.000000
       CHANNELS 3 Yrotation Xrotation Zrotation
       JOINT RightElbow
       {
        OFFSET 0.000000 -29.696600 0.000000
        CHANNELS 3 Yrotation Xrotation Zrotation
        JOINT RightWrist
        {
         OFFSET 0.000000 -24.004700 0.000000
         CHANNELS 3 Yrotation Xrotation Zrotation
         End Site
         {
          OFFSET 0.000000 -17.728500 0.000000
         }
        }
       }
      }
     }
     JOINT LeftCollar
     {
      OFFSET 2.921100 9.558500 0.000000
      CHANNELS 3 Yrotation Xrotation Zrotation
      JOINT LeftShoulder
      {
       OFFSET 13.519700 0.000000 0.000000
       CHANNELS 3 Yrotation Xrotation Zrotation
       JOINT LeftElbow
       {
        OFFSET 0.000000 -29.696600 0.000000
        CHANNELS 3 Yrotation Xrotation Zrotation
        JOINT LeftWrist
        {
         OFFSET 0.000000 -24.004700 0.000000
         CHANNELS 3 Yrotation Xrotation Zrotation
         End Site
         {
          OFFSET 0.000000 -17.728500 0.000000
         }
        }
       }
      }
     }
    }
   }
  }
 }
 JOINT RightHip
 {
  OFFSET -7.771700 -0.012900 -0.001300
  CHANNELS 3 Yrotation Xrotation Zrotation
  JOINT RightKnee
  {
   OFFSET 0.000000 -40.869800 0.001200
   CHANNELS 3 Yrotation Xrotation Zrotation
   JOINT RightAnkle
   {
    OFFSET 0.000000 -39.717900 0.002100
    CHANNELS 3 Yrotation Xrotation Zrotation
    JOINT RightToe
    {
     OFFSET 0.000000 -4.965400 11.033500
     CHANNELS 3 Yrotation Xrotation Zrotation
     End Site
     {
      OFFSET 0.000000 -1.423100 5.872300
     }
    }
   }
  }
 }
 JOINT LeftHip
 {
  OFFSET 7.771700 -0.012900 -0.001300
  CHANNELS 3 Yrotation Xrotation Zrotation
  JOINT LeftKnee
  {
   OFFSET 0.000000 -40.869800 0.001200
   CHANNELS 3 Yrotation Xrotation Zrotation
   JOINT LeftAnkle
   {
    OFFSET 0.000000 -39.717900 0.002100
    CHANNELS 3 Yrotation Xrotation Zrotation
    JOINT LeftToe
    {
     OFFSET 0.000000 -4.965400 11.033500
     CHANNELS 3 Yrotation Xrotation Zrotation
     End Site
     {
      OFFSET 0.000000 -1.423100 5.872300
     }
    }
   }
  }
 }
}
MOTION
Frames: 13
Frame Time: 0.008333
0.000000 85.388000 0.000000 0.000000 -5.767877 0.000000 0.000000 11.653817 0.000000 0.000000 -5.885947 0.000000 0.000000 -0.000000 0.000000 0.000000 -0.000000 0.000000 0.000000 12.528835 0.000000 0.000000 0.711642 0.000000 0.000000 -0.000000 0.000000 0.000000 0.000000 -90.000000 0.000000 -2.309062 0.000000 0.000000 2.309062 0.000000 0.000000 -0.000000 0.000000 0.000000 -0.000000 90.000000 0.000000 -2.309062 0.000000 0.000000 2.309062 0.000000 0.000000 8.520406 0.000000 0.000000 1.905762 0.000000 -0.000000 -4.658285 0.000000 0.000000 -0.000000 0.000000 0.000000 8.520406 0.000000 0.000000 1.905762 0.000000 -0.000000 -4.658285 0.000000 0.000000 -0.000000 0.000000
-51.311986 56.345433 -18.676019 -176.639667 -11.823538 0.021612 0.294595 15.386669 0.051360 0.032171 1.432221 0.059110 0.078393 2.456455 0.106482 0.449737 13.716023 0.632495 0.444902 11.179838 -3.429051 1.274127 -13.887952 -3.756221 -0.083713 -1.537957 2.037785 1.297894 -12.025013 -8.523301 -83.281490 -54.199934 118.563274 -17.969031 -11.032454 1.251655 -10.310534 -3.597024 1.067288 0.042974 -20.835517 8.151799 62.700257 -46.436834 -112.500986 10.311368 -9.247525 1.182387 -2.964163 -63.419228 10.003705 -37.971528 84.615465 -42.454069 -9.893210 -17.902950 14.490866 0.263720 -0.407323 0.144631 18.737877 -57.370521 -23.351395 67.739054 71.698504 68.496854 -7.409925 -14.955409 1.042182 0.338322 0.815028 0.151580
-51.314850 56.347103 -18.675702 -176.638700 -11.827895 0.019950 0.275933 15.360197 0.043901 0.034785 1.440924 0.060882 0.086646 2.459482 0.106037 0.454212 13.729045 0.633711 0.692925 11.153653 -3.457968 1.569793 -13.885307 -3.855760 -0.106110 -1.606748 2.057891 1.348178 -11.939792 -8.589347 -83.153105 -54.121640 118.502039 -18.043394 -11.554432 1.048271 -10.320893 -3.726034 1.102001 -0.244351 -20.828031 8.242187 62.470360 -46.319341 -112.540712 10.326034 -9.361416 1.194393 -2.968687 -63.412696 10.002511 -37.999172 84.608968 -42.482448 -9.883420 -17.898093 14.487459 0.263869 -0.409926 0.143810 18.746658 -57.362570 -23.355175 67.718434 71.701022 68.476615 -7.403059 -14.947892 1.051479 0.334884 0.810467 0.149180
-51.317347 56.349520 -18.676314 -176.647085 -11.838623 0.013926 0.282171 15.365871 0.050143 0.019175 1.419894 0.061309 0.065194 2.428111 0.103532 0.468077 13.752284 0.628389 1.018677 11.148126 -3.499690 1.935990 -13.882578 -3.992158 -0.107528 -1.649290 2.080166 1.389147 -11.858223 -8.628482 -82.992318 -54.063063 118.396941 -18.133702 -12.103190 0.839065 -10.309760 -3.825933 1.138592 -0.527498 -20.808932 8.315438 62.266804 -46.219731 -112.566492 10.333018 -9.459972 1.209040 -2.986407 -63.398833 10.017499 -37.910240 84.611440 -42.395921 -9.877824 -17.890042 14.484796 0.263367 -0.417249 0.141718 18.806550 -57.334754 -23.376599 67.669160 71.712645 68.458409 -7.427180 -14.956690 1.055366 0.353765 0.814831 0.159209
-51.320597 56.352493 -18.676852 -176.658354 -11.849877 0.010150 0.275420 15.352849 0.050479 0.027599 1.430414 0.062897 0.051079 2.408330 0.106868 0.430585 13.709877 0.630302 1.434741 11.180776 -3.578097 2.377238 -13.877411 -4.170113 -0.080394 -1.650197 2.086648 1.435534 -11.777273 -8.667143 -82.833565 -54.003818 118.265918 -18.231465 -12.667909 0.620613 -10.264159 -3.886430 1.152551 -0.813771 -20.777297 8.372873 62.082640 -46.138172 -112.565650 10.337129 -9.544612 1.224260 -3.004921 -63.381294 10.031070 -37.847163 84.605993 -42.331239 -9.878534 -17.886239 14.480498 0.256347 -0.416959 0.134718 18.837406 -57.315800 -23.381714 67.657701 71.716186 68.460204 -7.433956 -14.957979 1.056581 0.358042 0.811194 0.165290
-51.322499 56.355497 -18.675390 -176.675850 -11.849070 -0.001388 0.256683 15.306720 0.064371 0.055304 1.461720 0.055896 0.035273 2.385567 0.112959 0.446269 13.735453 0.622934 1.869848 11.145053 -3.656395 2.897124 -13.867041 -4.390367 -0.106830 -1.711466 2.119004 1.498337 -11.698589 -8.705802 -82.699778 -53.939167 118.113609 -18.323937 -13.226222 0.394230 -10.269340 -4.004507 1.201530 -1.105732 -20.732288 8.413886 61.909897 -46.072915 -112.528271 10.340668 -9.612344 1.235011 -3.041463 -63.374518 10.064310 -37.761396 84.591437 -42.239325 -9.861881 -17.876391 14.469056 0.261060 -0.417382 0.128603 18.865498 -57.311627 -23.379387 67.644417 71.711102 68.463113 -7.447028 -14.958980 1.057994 0.361823 0.811126 0.166961
-51.327217 56.359053 -18.674625 -176.692610 -11.854055 0.003112 0.242102 15.275974 0.067365 0.057516 1.467010 0.050610 0.042451 2.386818 0.113343 0.401236 13.665395 0.643960 2.414775 11.201579 -3.786013 3.496206 -13.845590 -4.651221 -0.078127 -1.674227 2.116729 1.546090 -11.632456 -8.730329 -82.557395 -53.869596 117.927204 -18.410770 -13.749068 0.169341 -10.219688 -4.038410 1.201672 -1.404947 -20.674589 8.440642 61.752841 -46.020220 -112.453828 10.341126 -9.653923 1.239376 -3.071807 -63.357150 10.071710 -37.404056 84.600219 -41.891039 -9.844871 -17.884578 14.467607 0.233544 -0.410985 0.110254 18.910895 -57.296302 -23.401261 67.621777 71.707480 68.456233 -7.459731 -14.949744 1.056681 0.366264 0.802655 0.169986
-51.330007 56.362907 -18.674566 -176.705160 -11.863144 -0.004065 0.233864 15.252793 0.088715 0.038528 1.437752 0.059067 0.056288 2.403810 0.107220 0.376931 13.631288 0.658001 3.004301 11.246926 -3.927989 4.173050 -13.806038 -4.954338 -0.060889 -1.643688 2.117251 1.579036 -11.586517 -8.668647 -82.384429 -53.862752 117.679947 -18.497675 -14.217498 -0.047663 -10.188496 -4.088512 1.211319 -1.713528 -20.608493 8.453017 61.612893 -45.979037 -112.342034 10.338639 -9.666597 1.242937 -3.091768 -63.342166 10.091684 -37.354509 84.590721 -41.831497 -9.877096 -17.870710 14.467539 0.234785 -0.413728 0.105757 18.917793 -57.285577 -23.389666 67.614547 71.709208 68.458332 -7.463825 -14.947618 1.053454 0.370844 0.797756 0.173147
-51.330811 56.366733 -18.674510 -176.721962 -11.871967 -0.020115 0.244003 15.244742 0.116564 0.019072 1.406646 0.080244 0.051767 2.393983 0.110274 0.362443 13.622418 0.667167 3.641433 11.294636 -4.088476 4.923369 -13.744717 -5.302792 -0.045005 -1.608918 2.115836 1.586371 -11.554501 -8.636571 -82.201781 -53.804024 117.415940 -18.591966 -14.634955 -0.253436 -10.163878 -4.148230 1.223703 -2.025982 -20.537730 8.443399 61.482086 -45.953657 -112.190164 10.336439 -9.654306 1.248686 -3.128474 -63.325906 10.127149 -37.218278 84.584586 -41.692821 -9.847379 -17.856834 14.460931 0.242327 -0.421061 0.108042 18.912645 -57.278844 -23.360187 67.607380 71.714132 68.464131 -7.469895 -14.949367 1.051713 0.380902 0.795688 0.172568
-51.333520 56.370355 -18.674218 -176.735918 -11.880376 -0.022184 0.247590 15.236252 0.131371 0.003247 1.385006 0.104443 0.047558 2.385506 0.113698 0.340873 13.600378 0.686093 4.322671 11.364871 -4.273260 5.737476 -13.654947 -5.694099 -0.022403 -1.556708 2.107912 1.568823 -11.541549 -8.596693 -81.995130 -53.729494 117.121649 -18.694053 -15.022055 -0.449688 -10.135162 -4.203575 1.228015 -2.330729 -20.467816 8.409981 61.349952 -45.942493 -112.003531 10.336028 -9.619105 1.258980 -3.178232 -63.306891 10.144476 -36.948011 84.588094 -41.420197 -9.829061 -17.854269 14.473752 0.245530 -0.421537 0.073920 18.931362 -57.269039 -23.363514 67.604484 71.716493 68.476937 -7.476103 -14.939868 1.049507 0.390282 0.783602 0.173029
-51.338795 56.373518 -18.673085 -176.755980 -11.884916 -0.003490 0.238196 15.208206 0.144521 -0.002536 1.378139 0.114500 0.043545 2.376304 0.117413 0.320302 13.576419 0.707096 5.034756 11.469115 -4.480150 6.600942 -13.523463 -6.122597 0.009945 -1.488505 2.059761 1.513398 -11.545559 -8.513604 -81.774439 -53.634305 116.813470 -18.794592 -15.399498 -0.648913 -10.099719 -4.250011 1.222308 -2.622086 -20.403780 8.359522 61.215076 -45.940289 -111.797017 10.338312 -9.564647 1.273695 -3.174054 -63.296654 10.109807 -36.725324 84.590163 -41.187616 -9.819740 -17.852392 14.480501 0.255841 -0.417311 0.047820 18.984649 -57.254031 -23.423618 67.614673 71.693476 68.502158 -7.438687 -14.925341 1.055157 0.355305 0.768699 0.154820
-51.341835 56.376146 -18.671390 -176.766500 -11.885772 0.004571 0.216507 15.175365 0.174666 -0.003934 1.370882 0.120364 0.039794 2.366949 0.121510 0.301133 13.551989 0.730142 5.761844 11.617146 -4.708673 7.496293 -13.338546 -6.583489 0.041948 -1.414631 2.005797 1.435424 -11.552764 -8.419603 -81.560852 -53.526223 116.516688 -18.884004 -15.776549 -0.869855 -10.059313 -4.286887 1.206043 -2.894056 -20.350211 8.299383 61.077375 -45.943524 -111.578460 10.345209 -9.503377 1.282670 -3.200482 -63.288629 10.096946 -36.445135 84.597090 -40.900716 -9.793586 -17.851830 14.473646 0.204892 -0.418104 0.048896 19.001876 -57.246980 -23.449530 67.596156 71.684071 68.497583 -7.420607 -14.919728 1.048882 0.348239 0.766368 0.148885
-51.343902 56.378709 -18.671602 -176.786875 -11.898787 0.013073 0.205930 15.153244 0.209695 -0.004149 1.363374 0.127993 0.036031 2.357842 0.126005 0.282205 13.527925 0.755457 6.485885 11.811239 -4.956884 8.402435 -13.096778 -7.069619 0.082429 -1.323827 2.055647 1.350622 -11.571324 -8.431364 -81.378813 -53.418496 116.255065 -18.961021 -16.153878 -1.124788 -10.020500 -4.313094 1.179790 -3.132354 -20.314368 8.235525 60.933173 -45.945408 -111.354720 10.354720 -9.449283 1.280870 -3.203032 -63.272256 10.083272 -36.354276 84.594303 -40.801010 -9.766008 -17.846611 14.455739 0.194883 -0.422572 0.052179 19.017343 -57.229982 -23.463592 67.597672 71.671464 68.515912 -7.419292 -14.915586 1.056063 0.350239 0.761870 0.130663
